<svg xmlns="http://www.w3.org/2000/svg" viewBox="0 0 480 280" font-family="Avenir Next, system-ui, sans-serif">
  <rect width="480" height="280" fill="#F3F5F0"/>
  <!-- güneş -->
  <circle cx="52" cy="46" r="15" fill="#FFE175" stroke="#004540" stroke-width="2"/>
  <g stroke="#004540" stroke-width="1.8" stroke-linecap="round" fill="none">
    <path d="M52 22v6M52 64v6M28 46h6M70 46h6M35 29l4 4M65 59l4 4M35 63l4-4M65 33l4-4"/>
  </g>
  <!-- fatura belgesi -->
  <g>
    <rect x="96" y="34" width="220" height="216" rx="12" fill="#FFFFFF" stroke="#D6D9E0" stroke-width="1.5"/>
    <rect x="96" y="34" width="220" height="40" rx="12" fill="#004540"/>
    <rect x="96" y="58" width="220" height="16" fill="#004540"/>
    <text x="114" y="60" fill="#FFFFFF" font-size="14" font-weight="700">ELEKTRİK FATURASI</text>
    <text x="114" y="100" fill="#525252" font-size="12">Tüketim bedeli</text>
    <text x="298" y="100" fill="#252525" font-size="12" font-weight="600" text-anchor="end">3.327,08 ₺</text>
    <line x1="114" y1="112" x2="298" y2="112" stroke="#E2E5DE" stroke-width="1"/>
    <!-- vurgulu destek satırı -->
    <rect x="106" y="122" width="200" height="30" rx="8" fill="#FFE175" stroke="#004540" stroke-width="1.6"/>
    <text x="118" y="141" fill="#252525" font-size="12" font-weight="700">Devlet desteği</text>
    <text x="296" y="141" fill="#004540" font-size="12" font-weight="700" text-anchor="end">− 997,08 ₺</text>
    <line x1="114" y1="168" x2="298" y2="168" stroke="#E2E5DE" stroke-width="1"/>
    <text x="114" y="192" fill="#525252" font-size="12">Ödenecek tutar</text>
    <text x="298" y="192" fill="#1F8A5D" font-size="15" font-weight="700" text-anchor="end">2.330,00 ₺</text>
    <line x1="114" y1="208" x2="240" y2="208" stroke="#E2E5DE" stroke-width="1"/>
    <line x1="114" y1="222" x2="270" y2="222" stroke="#E2E5DE" stroke-width="1"/>
  </g>
  <!-- daralan eşik grafiği -->
  <g>
    <text x="344" y="96" fill="#252525" font-size="12" font-weight="700">Destek eşiği</text>
    <rect x="344" y="108" width="100" height="26" rx="4" fill="#1F8A5D"/>
    <text x="352" y="125" fill="#FFFFFF" font-size="11" font-weight="600">2025 · 5.000</text>
    <rect x="344" y="144" width="80" height="26" rx="4" fill="#A5620D"/>
    <text x="352" y="161" fill="#FFFFFF" font-size="11" font-weight="600">2026 · 4.000</text>
    <text x="344" y="192" fill="#525252" font-size="10.5">kWh/yıl — her yıl daralıyor</text>
    <path d="M452 112v52m0 0-7-9m7 9 7-9" stroke="#A5620D" stroke-width="2.4" fill="none" stroke-linecap="round" stroke-linejoin="round"/>
  </g>
</svg>
